<?xml version="1.0" encoding="utf-8"?>
<!-- Generator: Adobe Illustrator 16.0.0, SVG Export Plug-In . SVG Version: 6.00 Build 0)  -->
<!DOCTYPE svg PUBLIC "-//W3C//DTD SVG 1.1//EN" "http://www.w3.org/Graphics/SVG/1.1/DTD/svg11.dtd">
<svg version="1.1" id="Layer_1" xmlns="http://www.w3.org/2000/svg" xmlns:xlink="http://www.w3.org/1999/xlink" x="0px" y="0px"
	 width="864px" height="432px" viewBox="0 0 864 432" enable-background="new 0 0 864 432" xml:space="preserve">
<g>
	<g>
		<path fill="#6B859E" d="M425.111,283.572h4.412l22.729,31.345v-31.345h3.899v38.015h-3.695l-23.446-32.271v32.271h-3.899V283.572z
			"/>
		<path fill="#6B859E" d="M465.849,283.572h25.136v3.848H469.9v12.567h20.571v3.799H469.9v14.107h21.29v3.693h-25.342V283.572z"/>
		<path fill="#6B859E" d="M511.352,287.42h-14.26v-3.848h32.576v3.848h-14.263v34.167h-4.054V287.42z"/>
		<path fill="#6B859E" d="M534.591,283.572h4.156l10.003,31.445l10.209-31.445h3.489l10.157,31.445l10.055-31.445h3.9l-12.211,38.27
			h-3.487l-10.262-31.65l-10.209,31.65h-3.538L534.591,283.572z"/>
		<path fill="#6B859E" d="M590.202,302.554c0-13.543,6.925-19.598,19.083-19.598c12.21,0,19.187,6.055,19.187,19.598
			c0,13.595-6.977,19.648-19.187,19.648C597.127,322.202,590.202,316.148,590.202,302.554z M624.42,302.604
			c0-10.261-4.771-15.799-15.135-15.799c-10.312,0-15.031,5.538-15.031,15.799c0,10.312,4.719,15.855,15.031,15.855
			C619.649,318.459,624.42,312.916,624.42,302.604z"/>
		<path fill="#6B859E" d="M652.071,306.092h-11.389v15.495h-3.951v-38.015h16.417c8.823,0,12.826,3.54,12.826,11.082
			c0,6.564-3.129,10.412-9.749,11.283l9.183,15.649h-4.308L652.071,306.092z M653.2,302.399c5.387,0,8.721-1.642,8.721-7.645
			c0-5.899-3.231-7.437-8.874-7.437h-12.364v15.081H653.2z"/>
		<path fill="#6B859E" d="M686.136,301.425l-7.594,8.31v11.853h-3.949v-38.015h3.949v20.982l19.238-20.982h4.668l-13.645,14.929
			l15.492,23.086h-4.565L686.136,301.425z"/>
		<path fill="#6B859E" d="M707.683,317.739l2.052-3.077c4.563,2.871,9.029,3.848,13.594,3.848c7.851,0,11.338-2.206,11.338-7.44
			c0-5.387-4.514-6.154-11.338-7.384c-8.208-1.44-13.749-2.827-13.749-10.518c0-7.34,4.719-10.212,13.749-10.212
			c5.953,0,10.211,1.336,13.236,3.387l-2.154,3.283c-2.72-1.796-6.773-2.977-11.082-2.977c-6.821,0-9.746,1.9-9.746,6.413
			c0,4.824,3.95,5.746,10.723,6.976c8.31,1.49,14.312,2.722,14.312,10.877c0,7.544-4.822,11.184-15.185,11.184
			C717.687,322.099,712.504,320.92,707.683,317.739z"/>
	</g>
	<g>
		<g>
			<g>
				<path fill="#272525" d="M778.36,126.457c-53.442,0-55.712,23.944-55.712,57.725v82.931h12.601v-82.931
					c0-25.459-1.008-45.878,43.111-45.878c4.726,0,8.92,0.248,12.694,0.689v-12.007C787.162,126.646,782.958,126.457,778.36,126.457
					z"/>
			</g>
			<path fill="#272525" d="M155.039,213.169v-83.942h12.856v84.191c0,24.202-0.25,44.617,44.114,44.617
				c44.112,0,43.106-20.415,43.106-45.877v-82.932h12.603v82.932c0,33.782-2.271,57.727-55.709,57.727
				C158.315,269.885,155.039,245.94,155.039,213.169z"/>
			<path fill="#272525" d="M401.723,183.17v83.942h-12.856v-84.191c0-24.198,0.251-44.617-44.112-44.617
				c-44.116,0-43.104,20.419-43.104,45.878v82.931h-12.604v-82.931c0-33.78,2.271-57.725,55.709-57.725
				C398.447,126.457,401.723,150.401,401.723,183.17z"/>
			<path fill="#272525" d="M425.113,129.482h12.337v137.63h-12.337V129.482z"/>
			<path fill="#272525" d="M460.559,129.482h64.434c31.951,0,46.439,15.881,46.439,44.112c0,28.419-14.305,45.696-46.618,45.696
				h-51.914v47.821h-12.341V129.482z M525.179,206.915c22.262,0,33.324-10.848,33.324-32.766c0-21.912-11.938-32.314-33.876-32.314
				h-51.728v65.08H525.179z"/>
			<path fill="#272525" d="M585.791,197.793c0-40.581,11.602-71.842,63.53-71.842c53.689,0,55.45,36.044,55.203,74.108H598.147
				c0.252,33.528,8.566,58.486,52.178,58.486c23.19,0,33.78-6.306,45.123-14.624l7.055,9.326
				c-12.601,9.327-27.471,16.637-52.178,16.637C595.879,269.885,585.791,238.373,585.791,197.793z M598.399,188.463h93.771
				c-1.259-27.475-3.026-50.916-43.106-50.916C610.499,137.547,599.913,158.47,598.399,188.463z"/>
			<g>
				<path d="M77.639,296.979c53.44,0,55.71-23.946,55.71-57.728V129.227h-12.606v110.024c0,25.456,1.009,45.882-43.104,45.882
					c-1.667,0-3.252-0.041-4.794-0.102v11.883C74.396,296.954,75.99,296.979,77.639,296.979z"/>
			</g>
		</g>
		<g>
			<path fill="#272525" d="M762.843,267.709c-4.798,0-8.705-3.902-8.705-8.699c0-4.799,3.907-8.702,8.705-8.702
				c4.797,0,8.696,3.903,8.696,8.702C771.539,263.807,767.64,267.709,762.843,267.709L762.843,267.709z M762.843,251.434
				c-4.18,0-7.58,3.397-7.58,7.576c0,4.173,3.4,7.575,7.58,7.575c4.171,0,7.571-3.402,7.571-7.575
				C770.414,254.831,767.014,251.434,762.843,251.434L762.843,251.434z"/>
			<g>
				<path fill="#272525" d="M763.403,260.168h-2.792v3.844h-1.331v-9.993h4.449c2.533,0,3.508,1.038,3.508,3.01
					c0,1.613-0.686,2.728-2.413,3.049l2.261,3.935h-1.449L763.403,260.168z M763.714,258.918c1.365,0,2.146-0.395,2.146-1.853
					c0-1.444-0.759-1.777-2.188-1.777h-3.062v3.63H763.714z"/>
			</g>
		</g>
	</g>
</g>
</svg>
