<?xml version="1.0" encoding="utf-8"?>
<!-- Generator: Adobe Illustrator 16.0.0, SVG Export Plug-In . SVG Version: 6.00 Build 0)  -->
<!DOCTYPE svg PUBLIC "-//W3C//DTD SVG 1.1//EN" "http://www.w3.org/Graphics/SVG/1.1/DTD/svg11.dtd">
<svg version="1.1" id="Layer_1" xmlns="http://www.w3.org/2000/svg" xmlns:xlink="http://www.w3.org/1999/xlink" x="0px" y="0px"
	 width="125.324px" height="110.859px" viewBox="0 0 125.324 110.859" enable-background="new 0 0 125.324 110.859"
	 xml:space="preserve">
<g opacity="0.05">
	<rect x="50.583" y="33.096" fill="#FFFFFF" width="1.903" height="3.586"/>
	<rect x="54.037" y="33.096" fill="#FFFFFF" width="1.903" height="3.586"/>
	<rect x="51.701" y="50.891" fill="#FFFFFF" width="2.171" height="3.586"/>
	<rect x="54.202" y="57.172" fill="#FFFFFF" width="2.171" height="4.039"/>
	<path fill="#FFFFFF" d="M55.43,92.658c-8.503,0-16.343-2.871-22.618-7.688c-2.773-0.168-3.741,0.197-3.763,0.207
		c0.106-0.045,0.149-0.082,0.149-0.082l-2.107-3.4c0.208-0.129,0.658-0.346,1.491-0.518c-2.304-2.402-4.297-5.104-5.896-8.053
		c-0.52,0.203-1.036,0.436-1.372,0.637l-0.052,0.031c-0.948,0.568-2.177,0.26-2.744-0.689s-0.259-2.178,0.689-2.744
		c0.024-0.014,0.054-0.031,0.078-0.045c0.626-0.338,1.169-0.562,1.709-0.76c-0.644-1.564-1.19-3.178-1.618-4.84
		c-0.028,0.016-0.063,0.031-0.089,0.047l-0.052,0.031c-0.948,0.568-2.177,0.26-2.744-0.689s-0.259-2.178,0.689-2.744
		c0.024-0.014,0.054-0.031,0.078-0.045c0.478-0.258,0.908-0.451,1.324-0.617c-0.245-1.721-0.379-3.479-0.379-5.268
		c0-20.525,16.7-37.227,37.228-37.227c7.082,0,13.813,1.947,19.64,5.588h6.77c-7.371-6.141-16.752-9.588-26.409-9.588
		c-22.733,0-41.228,18.494-41.228,41.227c0,22.734,18.494,41.229,41.228,41.229c5.222,0,10.312-1,15.079-2.887
		c-3.982-0.48-7.254-1.1-9.422-1.566C59.228,92.494,57.339,92.658,55.43,92.658z"/>
	<path fill="#FFFFFF" d="M55.43,106.859C27.072,106.859,4,83.789,4,55.43C4,27.072,27.072,4,55.43,4
		c15.878,0,30.839,7.443,40.513,19.791h4.977C90.613,9.016,73.576,0,55.43,0C24.866,0,0,24.865,0,55.43s24.865,55.43,55.43,55.43
		c15.458,0,29.827-6.297,40.272-17.404c-2.111,0.365-4.305,0.637-6.574,0.812C79.865,102.354,68.033,106.859,55.43,106.859z"/>
	<path fill="#FFFFFF" d="M124.429,73.27c-0.92-0.611-2.162-0.357-2.771,0.562c-1.215,1.834-2.574,3.473-4.045,4.943
		c-0.652,0.432-1.32,0.84-2.006,1.215c-2.654,1.492-5.52,2.59-8.471,3.301c-5.922,1.424-12.146,1.195-18.117-0.014
		c-5.732-1.174-11.273-3.221-16.561-5.768l-2.154-8.344c0-4-5.49-3.562-5.49-3.562h-2.043l-3.987-23.268
		c1.267-0.9,2.891-2.139,2.851-2.547c-0.016-0.152-0.9-0.268-2.251-0.348V29.438c1.386-0.061,2.282-0.146,2.251-0.256
		c-0.134-0.475-4.309-2.625-4.309-2.625l-3.501-1.406v-1.621c0.257-0.182,0.436-0.465,0.436-0.803c0-0.553-0.447-1-0.999-1
		s-0.999,0.447-0.999,1c0,0.342,0.185,0.631,0.447,0.811v1.617l-3.495,1.42c0,0-4.381,2.117-4.315,2.607
		c0.015,0.111,0.896,0.195,2.24,0.256v10.004c-1.379,0.082-2.271,0.197-2.24,0.348c0.079,0.381,1.556,1.551,2.759,2.451
		l-2.82,19.994c-0.018-0.006-0.033-0.014-0.05-0.02c-0.78-0.275-1.558-0.562-2.354-0.803c-1.577-0.52-3.191-0.939-4.819-1.312
		c-3.264-0.711-6.627-1.141-10.043-1.055c-1.706,0.041-3.422,0.215-5.132,0.545c-0.854,0.172-1.708,0.379-2.558,0.646
		c-0.445,0.146-0.866,0.289-1.3,0.461c-0.417,0.166-0.846,0.359-1.324,0.617c-0.024,0.014-0.054,0.031-0.078,0.045
		c-0.948,0.566-1.257,1.795-0.689,2.744s1.796,1.258,2.744,0.689l0.052-0.031c0.025-0.016,0.061-0.031,0.089-0.047
		c0.442-0.252,1.126-0.545,1.745-0.762c0.683-0.242,1.396-0.441,2.121-0.613c1.454-0.332,2.958-0.541,4.481-0.629
		c0.762-0.041,1.528-0.057,2.296-0.055c0.769,0.018,1.539,0.045,2.31,0.105c0.771,0.062,1.543,0.131,2.312,0.242
		c0.771,0.096,1.539,0.23,2.308,0.365c1.532,0.299,3.062,0.639,4.572,1.08c0.759,0.201,1.508,0.449,2.259,0.686
		c0.753,0.232,1.491,0.518,2.238,0.773l2.214,0.855l2.188,0.934c1.43,0.639,2.842,1.324,4.244,2.031
		c1.253,0.939,2.488,1.787,3.764,2.623c1.316,0.863,2.652,1.689,4.006,2.488c2.709,1.594,5.488,3.064,8.336,4.395
		C76.46,81.891,82.447,84,88.662,85.139c4.611,0.834,9.385,1.104,14.062,0.521c-3.789,0.865-7.691,1.223-11.578,1.109
		c-5.832-0.16-11.619-1.303-17.18-3.092c-2.783-0.896-5.514-1.957-8.176-3.162c-1.33-0.605-2.645-1.242-3.936-1.92
		c-1.28-0.674-2.583-1.4-3.756-2.145l-0.037-0.023L58.011,76.4c-1.438-0.791-2.89-1.557-4.367-2.279l-2.238-1.047l-2.275-0.969
		c-0.772-0.297-1.534-0.617-2.316-0.891c-0.78-0.275-1.559-0.562-2.354-0.803c-1.576-0.52-3.191-0.939-4.819-1.312
		c-3.264-0.711-6.627-1.141-10.043-1.055c-1.706,0.041-3.422,0.215-5.132,0.545c-0.854,0.172-1.708,0.379-2.558,0.646
		c-0.312,0.104-0.614,0.207-0.916,0.318c-0.54,0.197-1.083,0.422-1.709,0.76c-0.024,0.014-0.054,0.031-0.078,0.045
		c-0.948,0.566-1.257,1.795-0.689,2.744s1.796,1.258,2.744,0.689l0.052-0.031c0.336-0.201,0.852-0.434,1.372-0.637
		c0.155-0.061,0.311-0.119,0.461-0.172c0.683-0.242,1.396-0.441,2.121-0.613c1.454-0.332,2.958-0.541,4.481-0.629
		c0.762-0.041,1.528-0.057,2.296-0.055c0.769,0.018,1.539,0.045,2.31,0.105c0.771,0.062,1.543,0.131,2.312,0.242
		c0.771,0.096,1.539,0.23,2.308,0.365c1.532,0.299,3.063,0.639,4.573,1.08c0.76,0.201,1.508,0.449,2.26,0.686
		c0.752,0.232,1.49,0.518,2.237,0.773l2.214,0.855l2.188,0.934c1.448,0.648,2.88,1.342,4.302,2.061l-0.087-0.051
		c1.351,0.816,2.663,1.504,4.022,2.184c1.353,0.674,2.723,1.301,4.109,1.895c2.773,1.184,5.609,2.213,8.496,3.074
		c5.773,1.721,11.777,2.771,17.828,2.805c4.965,0.037,9.959-0.666,14.691-2.189c-19.506,8-44.938,1.607-46.482,1.205
		c-19.741-7.113-27.741-7.119-30.745-6.502c-0.833,0.172-1.282,0.389-1.491,0.518l2.107,3.4c0,0-0.042,0.037-0.149,0.082
		c0.022-0.01,0.99-0.375,3.763-0.207c3.937,0.238,11.516,1.553,25.239,6.502l0.152,0.047c0.138,0.037,1.167,0.314,2.884,0.686
		c2.168,0.467,5.439,1.086,9.422,1.566c3.578,0.434,7.725,0.756,12.158,0.756c0.531,0,1.066-0.006,1.605-0.014
		c1.66-0.029,3.27-0.123,4.855-0.246c2.27-0.176,4.463-0.447,6.574-0.812c13.154-2.277,23.174-8.182,29.289-17.414
		C125.601,75.121,125.349,73.879,124.429,73.27z M49.139,30.543h8.244v8.174h-8.244V30.543z M52.569,65.604
		c-0.317-0.16-0.632-0.326-0.952-0.482l-2.236-1.047l-1.672-0.711l2.82-20l5.385-0.018l3.813,22.258H52.569z"/>
</g>
<g opacity="0.2">
	<path fill="#FFFFFF" d="M125.988,200.204"/>
	<g>
		<path fill="none" stroke="#C4DCE5" stroke-miterlimit="10" d="M125.988,200.204"/>
	</g>
</g>
</svg>
