<?xml version="1.0" encoding="utf-8"?>
<!-- Generator: Adobe Illustrator 16.0.0, SVG Export Plug-In . SVG Version: 6.00 Build 0)  -->
<!DOCTYPE svg PUBLIC "-//W3C//DTD SVG 1.1//EN" "http://www.w3.org/Graphics/SVG/1.1/DTD/svg11.dtd">
<svg version="1.1" id="Layer_1" xmlns="http://www.w3.org/2000/svg" xmlns:xlink="http://www.w3.org/1999/xlink" x="0px" y="0px"
	 width="718.21px" height="196.251px" viewBox="0 0 718.21 196.251" enable-background="new 0 0 718.21 196.251"
	 xml:space="preserve">
<g>
	<g>
		<path fill="#5D87A1" d="M352.267,157.621h4.412l22.729,31.345v-31.345h3.899v38.015h-3.695l-23.446-32.271v32.271h-3.899V157.621z
			"/>
		<path fill="#5D87A1" d="M393.004,157.621h25.136v3.848h-21.084v12.567h20.571v3.799h-20.571v14.107h21.29v3.693h-25.342V157.621z"
			/>
		<path fill="#5D87A1" d="M438.507,161.469h-14.26v-3.848h32.576v3.848h-14.263v34.167h-4.054V161.469z"/>
		<path fill="#5D87A1" d="M461.746,157.621h4.156l10.003,31.445l10.209-31.445h3.489l10.157,31.445l10.055-31.445h3.9l-12.211,38.27
			h-3.487l-10.262-31.65l-10.209,31.65h-3.538L461.746,157.621z"/>
		<path fill="#5D87A1" d="M517.357,176.603c0-13.543,6.925-19.598,19.083-19.598c12.21,0,19.187,6.055,19.187,19.598
			c0,13.595-6.977,19.648-19.187,19.648C524.282,196.251,517.357,190.197,517.357,176.603z M551.575,176.652
			c0-10.261-4.771-15.799-15.135-15.799c-10.312,0-15.031,5.538-15.031,15.799c0,10.312,4.719,15.855,15.031,15.855
			C546.805,192.508,551.575,186.965,551.575,176.652z"/>
		<path fill="#5D87A1" d="M579.227,180.141h-11.389v15.495h-3.951v-38.015h16.417c8.823,0,12.826,3.54,12.826,11.082
			c0,6.564-3.129,10.412-9.749,11.283l9.183,15.649h-4.308L579.227,180.141z M580.355,176.448c5.387,0,8.721-1.642,8.721-7.645
			c0-5.899-3.231-7.437-8.874-7.437h-12.364v15.081H580.355z"/>
		<path fill="#5D87A1" d="M613.291,175.474l-7.594,8.31v11.853h-3.949v-38.015h3.949v20.982l19.238-20.982h4.668l-13.645,14.929
			l15.492,23.086h-4.565L613.291,175.474z"/>
		<path fill="#5D87A1" d="M634.838,191.788l2.052-3.077c4.563,2.871,9.029,3.848,13.594,3.848c7.851,0,11.338-2.206,11.338-7.44
			c0-5.387-4.514-6.154-11.338-7.384c-8.208-1.44-13.749-2.827-13.749-10.518c0-7.34,4.719-10.212,13.749-10.212
			c5.953,0,10.211,1.336,13.236,3.387l-2.154,3.283c-2.72-1.796-6.773-2.977-11.082-2.977c-6.821,0-9.746,1.9-9.746,6.413
			c0,4.824,3.95,5.746,10.723,6.976c8.31,1.49,14.312,2.722,14.312,10.877c0,7.544-4.822,11.184-15.185,11.184
			C644.842,196.147,639.659,194.969,634.838,191.788z"/>
	</g>
	<g>
		<g>
			<g>
				<path d="M705.516,0.506c-53.442,0-55.712,23.944-55.712,57.725v82.931h12.601V58.23c0-25.459-1.008-45.878,43.111-45.878
					c4.726,0,8.92,0.248,12.694,0.689V1.035C714.317,0.694,710.113,0.506,705.516,0.506z"/>
			</g>
			<path d="M82.194,87.218V3.275h12.856v84.191c0,24.202-0.25,44.617,44.114,44.617c44.112,0,43.106-20.415,43.106-45.877V3.275
				h12.603v82.932c0,33.782-2.271,57.727-55.709,57.727C85.471,143.934,82.194,119.989,82.194,87.218z"/>
			<path d="M328.878,57.219v83.942h-12.856V56.97c0-24.198,0.251-44.617-44.112-44.617c-44.116,0-43.104,20.419-43.104,45.878
				v82.931H216.2V58.23c0-33.78,2.271-57.725,55.709-57.725C325.603,0.506,328.878,24.45,328.878,57.219z"/>
			<path d="M352.269,3.531h12.337v137.63h-12.337V3.531z"/>
			<path d="M387.714,3.531h64.434c31.951,0,46.439,15.881,46.439,44.112c0,28.419-14.305,45.696-46.618,45.696h-51.914v47.821
				h-12.341V3.531z M452.334,80.964c22.262,0,33.324-10.848,33.324-32.766c0-21.912-11.938-32.314-33.876-32.314h-51.728v65.08
				H452.334z"/>
			<path d="M512.946,71.842C512.946,31.261,524.548,0,576.477,0c53.689,0,55.45,36.044,55.203,74.108H525.303
				c0.252,33.528,8.566,58.486,52.178,58.486c23.19,0,33.78-6.306,45.123-14.624l7.055,9.326
				c-12.601,9.327-27.471,16.637-52.178,16.637C523.034,143.934,512.946,112.422,512.946,71.842z M525.555,62.512h93.771
				c-1.259-27.475-3.026-50.916-43.106-50.916C537.654,11.596,527.068,32.519,525.555,62.512z"/>
			<g>
				<path d="M4.794,171.027c53.44,0,55.71-23.946,55.71-57.728V3.275H47.897V113.3c0,25.456,1.009,45.882-43.104,45.882
					c-1.667,0-3.252-0.041-4.794-0.102v11.883C1.551,171.003,3.146,171.027,4.794,171.027z"/>
			</g>
		</g>
		<g>
			<path d="M689.998,141.758c-4.798,0-8.705-3.902-8.705-8.699c0-4.799,3.907-8.702,8.705-8.702c4.797,0,8.696,3.903,8.696,8.702
				C698.694,137.855,694.795,141.758,689.998,141.758L689.998,141.758z M689.998,125.482c-4.18,0-7.58,3.397-7.58,7.576
				c0,4.173,3.4,7.575,7.58,7.575c4.171,0,7.571-3.402,7.571-7.575C697.569,128.88,694.169,125.482,689.998,125.482L689.998,125.482
				z"/>
			<g>
				<path d="M690.559,134.217h-2.792v3.844h-1.331v-9.993h4.449c2.533,0,3.508,1.038,3.508,3.01c0,1.613-0.686,2.728-2.413,3.049
					l2.261,3.935h-1.449L690.559,134.217z M690.869,132.967c1.365,0,2.146-0.395,2.146-1.853c0-1.444-0.759-1.777-2.188-1.777
					h-3.062v3.63H690.869z"/>
			</g>
		</g>
	</g>
</g>
</svg>
