<?xml version="1.0" encoding="utf-8"?>
<!-- Generator: Adobe Illustrator 16.0.0, SVG Export Plug-In . SVG Version: 6.00 Build 0)  -->
<!DOCTYPE svg PUBLIC "-//W3C//DTD SVG 1.1//EN" "http://www.w3.org/Graphics/SVG/1.1/DTD/svg11.dtd">
<svg version="1.1" id="Layer_1" xmlns="http://www.w3.org/2000/svg" xmlns:xlink="http://www.w3.org/1999/xlink" x="0px" y="0px"
	 width="332.224px" height="110.859px" viewBox="0 0 332.224 110.859" enable-background="new 0 0 332.224 110.859"
	 xml:space="preserve">
<g>
	<g>
		<path fill="#939598" d="M76.655,55.646c0-8.235,5.585-14.57,13.878-14.57c5.067,0,8.062,2.073,10.192,4.838l-2.879,2.648
			c-1.843-2.533-4.204-3.628-7.083-3.628c-5.932,0-9.617,4.55-9.617,10.712c0,6.161,3.686,10.769,9.617,10.769
			c2.879,0,5.24-1.152,7.083-3.628l2.879,2.648c-2.13,2.765-5.125,4.838-10.192,4.838C82.24,70.273,76.655,63.938,76.655,55.646z"/>
		<path fill="#939598" d="M106.312,55.646c0-8.062,5.299-14.57,13.764-14.57s13.764,6.508,13.764,14.57
			c0,8.062-5.299,14.627-13.764,14.627S106.312,63.708,106.312,55.646z M129.289,55.646c0-5.644-3.281-10.712-9.213-10.712
			s-9.271,5.068-9.271,10.712c0,5.7,3.34,10.769,9.271,10.769S129.289,61.347,129.289,55.646z"/>
		<path fill="#939598" d="M162.171,69.582v-4.146c-2.072,2.822-5.471,4.838-9.387,4.838c-7.256,0-12.381-5.528-12.381-14.569
			c0-8.869,5.068-14.628,12.381-14.628c3.744,0,7.141,1.843,9.387,4.896v-14.8h4.318v38.41H162.171z M162.171,62.038V49.427
			c-1.555-2.419-4.895-4.492-8.35-4.492c-5.586,0-8.926,4.607-8.926,10.77c0,6.161,3.34,10.711,8.926,10.711
			C157.277,66.415,160.617,64.457,162.171,62.038z"/>
		<path fill="#939598" d="M174.667,55.646c0-8.062,5.758-14.57,13.705-14.57c8.408,0,13.361,6.565,13.361,14.915v1.095h-22.518
			c0.346,5.24,4.031,9.617,10.021,9.617c3.166,0,6.391-1.268,8.58-3.514l2.072,2.822c-2.764,2.764-6.508,4.262-11.057,4.262
			C180.599,70.273,174.667,64.342,174.667,55.646z M188.316,44.647c-5.932,0-8.869,5.01-9.1,9.271h18.256
			C197.414,49.772,194.65,44.647,188.316,44.647z"/>
		<path fill="#939598" d="M208.242,55.646c0-8.235,5.584-14.57,13.877-14.57c5.068,0,8.062,2.073,10.193,4.838l-2.879,2.648
			c-1.844-2.533-4.205-3.628-7.084-3.628c-5.932,0-9.617,4.55-9.617,10.712c0,6.161,3.686,10.769,9.617,10.769
			c2.879,0,5.24-1.152,7.084-3.628l2.879,2.648c-2.131,2.765-5.125,4.838-10.193,4.838
			C213.826,70.273,208.242,63.938,208.242,55.646z"/>
		<path fill="#939598" d="M237.898,55.646c0-8.062,5.299-14.57,13.764-14.57s13.764,6.508,13.764,14.57
			c0,8.062-5.299,14.627-13.764,14.627S237.898,63.708,237.898,55.646z M260.875,55.646c0-5.644-3.281-10.712-9.213-10.712
			s-9.271,5.068-9.271,10.712c0,5.7,3.34,10.769,9.271,10.769S260.875,61.347,260.875,55.646z"/>
		<path fill="#939598" d="M281.031,69.582l-11.574-27.814h4.664l9.271,22.805l9.213-22.805h4.723l-11.574,27.814H281.031z"/>
		<path fill="#939598" d="M301.359,55.646c0-8.062,5.758-14.57,13.705-14.57c8.408,0,13.361,6.565,13.361,14.915v1.095h-22.518
			c0.346,5.24,4.031,9.617,10.021,9.617c3.166,0,6.391-1.268,8.58-3.514l2.072,2.822c-2.764,2.764-6.508,4.262-11.057,4.262
			C307.291,70.273,301.359,64.342,301.359,55.646z M315.007,44.647c-5.932,0-8.869,5.01-9.1,9.271h18.256
			C324.105,49.772,321.341,44.647,315.007,44.647z"/>
	</g>
	<g>
		<g>
			<rect x="50.583" y="31.051" fill="#48A9C0" width="1.903" height="5.232"/>
		</g>
		<g>
			<rect x="54.036" y="31.051" fill="#48A9C0" width="1.903" height="5.232"/>
		</g>
		<g>
			<rect x="53.557" y="58.089" fill="#48A9C0" width="2.858" height="5.32"/>
		</g>
		<g>
			<rect x="51.057" y="49.155" fill="#48A9C0" width="2.858" height="5.32"/>
		</g>
		<g>
			<path fill="#48A9C0" d="M28.331,80.339C28.169,80.451,28.193,80.461,28.331,80.339L28.331,80.339z"/>
		</g>
		<g>
			<path fill="#48A9C0" d="M128.095,78.532c-0.574-0.455-1.322-0.536-1.961-0.289c-0.158-0.016-0.322,0.014-0.463,0.111
				l-0.023,0.018c0,0-0.361,0.249-1.039,0.718c-0.686,0.452-1.701,1.108-3.062,1.812c-1.357,0.712-3.061,1.478-5.086,2.139
				c-2.023,0.671-4.379,1.208-6.986,1.524c-5.214,0.636-11.431,0.213-17.845-1.356c-6.421-1.552-13.041-4.165-19.296-7.437
				c-0.126-0.067-0.25-0.137-0.377-0.204l-1.652-6.402c0-4-5.489-3.563-5.489-3.563h-2.044l-3.987-23.268
				c1.268-0.9,2.891-2.138,2.851-2.546c-0.015-0.152-0.901-0.268-2.251-0.349V27.469c0.789-0.056,1.267-0.126,1.245-0.213
				c-0.117-0.475-3.794-2.624-3.794-2.624l-2.238-1.021c0.168-0.254,0.268-0.558,0.268-0.885c0-0.885-0.718-1.604-1.603-1.604
				s-1.603,0.719-1.603,1.604c0,0.33,0.1,0.636,0.271,0.891l-2.237,1.033c0,0-3.857,2.117-3.8,2.606
				c0.011,0.086,0.484,0.156,1.246,0.212V39.44c-1.379,0.082-2.271,0.198-2.24,0.349c0.079,0.381,1.555,1.551,2.759,2.45
				l-2.735,19.393c-0.072-0.019-0.146-0.043-0.219-0.062c-3.104-0.798-6.118-1.271-8.919-1.492
				c-5.612-0.451-10.331,0.138-13.577,0.792c-1.411,0.291-2.609,0.597-3.462,0.853c-0.35-2.047-0.543-4.147-0.543-6.293
				c0-20.526,16.7-37.227,37.228-37.227c7.082,0,13.814,1.946,19.64,5.588h6.77c-7.371-6.141-16.751-9.588-26.409-9.588
				c-22.733,0-41.228,18.494-41.228,41.227c0,22.733,18.494,41.228,41.228,41.228c2.617,0,5.201-0.256,7.729-0.74
				c2.233,0.751,4.591,1.608,7.084,2.599l0.138,0.049c0.117,0.037,4.053,1.23,10.07,1.807c-7.525,4.208-16.076,6.488-25.021,6.488
				C27.071,106.859,4,83.788,4,55.43S27.071,4,55.43,4c15.879,0,30.84,7.443,40.514,19.791h4.976C90.612,9.015,73.576,0,55.43,0
				C24.865,0,0,24.865,0,55.43s24.865,55.43,55.43,55.43c11.705,0,22.786-3.615,32.016-10.188
				c12.217-0.121,28.621-3.745,40.976-19.33C129.107,80.477,128.962,79.219,128.095,78.532z M49.139,28.618h8.244v10.098h-8.244
				V28.618z M50.529,43.362l5.384-0.017l3.813,22.257h-4.309c-0.424-0.21-0.846-0.43-1.271-0.628
				c-2.101-0.98-4.217-1.802-6.317-2.484L50.529,43.362z M110.859,91.101c-18.103,9.785-37.576,4.171-39.212,3.669
				c-6.78-2.689-12.634-4.471-17.545-5.649c-11.144-2.675-17.395-2.232-18.391-2.136c-1.085-0.681-2.132-1.417-3.138-2.202
				c-1.636-1.276-3.166-2.681-4.566-4.207c0.114-0.083,0.234-0.154,0.342-0.252c-0.008,0.008-0.011,0.009-0.018,0.016
				c0.049-0.035,0.11-0.076,0.197-0.129c0.364-0.227,1.098-0.576,2.19-0.882c1.103-0.293,2.562-0.557,4.349-0.613
				c1.782-0.064,3.868,0.043,6.168,0.368c4.605,0.636,10.035,2.17,15.705,4.361c1.42,0.545,2.853,1.139,4.298,1.76
				c1.033,0.457,2.058,0.913,3.097,1.393c0.414,0.19,0.823,0.374,1.248,0.58c0.738,0.354,1.479,0.709,2.223,1.064
				c0.835,0.407,1.623,0.741,2.437,1.07c1.617,0.651,3.256,1.22,4.913,1.721c6.619,2.008,13.55,2.898,20.015,2.596
				c3.23-0.144,6.336-0.58,9.221-1.234c1.966-0.434,3.818-0.993,5.554-1.613c0.812-0.291,1.609-0.592,2.367-0.906
				c0.711-0.283,1.387-0.585,2.041-0.893C113.197,89.751,112.033,90.467,110.859,91.101z M117.345,84.533
				c-1.764,0.893-3.773,1.863-6.068,2.646c-1.986,0.712-4.174,1.334-6.505,1.788c-0.345,0.067-0.683,0.142-1.033,0.2
				c-2.724,0.476-5.634,0.737-8.646,0.72c-5.103-0.016-10.484-0.857-15.678-2.429c-0.935-0.283-1.865-0.581-2.784-0.911
				c-1.505-0.538-2.988-1.139-4.417-1.799c-0.708-0.328-1.428-0.68-2.06-1.029c-0.722-0.402-1.441-0.805-2.158-1.205
				c-2.902-1.6-5.868-3.142-8.768-4.464c-5.817-2.683-11.551-4.732-16.793-5.807c-2.618-0.54-5.108-0.841-7.385-0.904
				c-2.273-0.072-4.342,0.134-6.079,0.48c-1.744,0.362-3.151,0.878-4.159,1.392c-0.71,0.353-1.223,0.701-1.539,0.942
				c-1.388-2.374-2.526-4.91-3.366-7.58c0.043-0.016,0.082-0.03,0.094-0.034c0.721-0.254,1.815-0.604,3.251-0.951
				c2.866-0.679,7.121-1.367,12.262-1.129c5.126,0.22,11.127,1.377,17.102,3.952c2.989,1.271,5.971,2.865,8.853,4.737
				c2.961,2.042,6.223,3.776,9.476,5.379c6.547,3.181,13.44,5.672,20.142,7.084c3.349,0.707,6.645,1.139,9.788,1.279
				c3.144,0.15,6.132-0.024,8.857-0.421c2.723-0.411,5.18-1.049,7.283-1.815c0.131-0.047,0.248-0.098,0.377-0.146
				C117.375,84.517,117.361,84.524,117.345,84.533z"/>
		</g>
	</g>
</g>
</svg>
