<?xml version="1.0" encoding="utf-8"?>
<!-- Generator: Adobe Illustrator 16.0.0, SVG Export Plug-In . SVG Version: 6.00 Build 0)  -->
<!DOCTYPE svg PUBLIC "-//W3C//DTD SVG 1.1//EN" "http://www.w3.org/Graphics/SVG/1.1/DTD/svg11.dtd">
<svg version="1.1" id="Layer_1" xmlns="http://www.w3.org/2000/svg" xmlns:xlink="http://www.w3.org/1999/xlink" x="0px" y="0px"
	 width="332.224px" height="110.859px" viewBox="0 0 332.224 110.859" enable-background="new 0 0 332.224 110.859"
	 xml:space="preserve">
<g>
	<g>
		<path fill="#6C859E" d="M162.459,80.998h1.622l8.357,11.524V80.998h1.433v13.978h-1.358l-8.621-11.864v11.864h-1.433V80.998z"/>
		<path fill="#6C859E" d="M177.438,80.998h9.241v1.415h-7.753v4.621h7.565v1.397h-7.565v5.187h7.829v1.357h-9.317V80.998z"/>
		<path fill="#6C859E" d="M194.169,82.413h-5.243v-1.415h11.977v1.415h-5.243v12.562h-1.49V82.413z"/>
		<path fill="#6C859E" d="M202.713,80.998h1.528l3.678,11.563l3.753-11.563h1.283l3.735,11.563l3.697-11.563h1.433l-4.488,14.072
			h-1.283l-3.773-11.638l-3.753,11.638h-1.302L202.713,80.998z"/>
		<path fill="#6C859E" d="M223.161,87.978c0-4.979,2.546-7.205,7.017-7.205c4.49,0,7.055,2.226,7.055,7.205
			c0,4.999-2.564,7.225-7.055,7.225C225.707,95.202,223.161,92.977,223.161,87.978z M235.743,87.996
			c0-3.772-1.755-5.809-5.565-5.809c-3.793,0-5.527,2.036-5.527,5.809c0,3.791,1.734,5.83,5.527,5.83
			C233.988,93.826,235.743,91.787,235.743,87.996z"/>
		<path fill="#6C859E" d="M245.909,89.278h-4.187v5.697h-1.452V80.998h6.035c3.244,0,4.715,1.303,4.715,4.075
			c0,2.414-1.15,3.828-3.584,4.148l3.377,5.754h-1.584L245.909,89.278z M246.326,87.921c1.979,0,3.205-0.604,3.205-2.811
			c0-2.169-1.188-2.734-3.264-2.734h-4.545v5.545H246.326z"/>
		<path fill="#6C859E" d="M258.435,87.562l-2.793,3.056v4.357h-1.453V80.998h1.453v7.716l7.074-7.716h1.716l-5.019,5.489
			l5.697,8.488h-1.679L258.435,87.562z"/>
		<path fill="#6C859E" d="M266.356,93.562l0.754-1.132c1.679,1.056,3.319,1.415,4.999,1.415c2.887,0,4.168-0.812,4.168-2.735
			c0-1.981-1.658-2.263-4.168-2.716c-3.018-0.529-5.055-1.039-5.055-3.867c0-2.698,1.734-3.754,5.055-3.754
			c2.188,0,3.755,0.491,4.866,1.244l-0.791,1.208c-0.999-0.661-2.491-1.095-4.075-1.095c-2.508,0-3.583,0.699-3.583,2.358
			c0,1.773,1.453,2.112,3.942,2.565c3.055,0.548,5.262,1,5.262,3.999c0,2.773-1.773,4.112-5.582,4.112
			C270.035,95.165,268.129,94.73,266.356,93.562z"/>
	</g>
	<g>
		<g>
			<g>
				<path fill="#282525" d="M292.344,23.229c-19.651,0-20.485,8.805-20.485,21.225v30.492h4.634V44.454
					c0-9.361-0.371-16.867,15.852-16.867c1.737,0,3.279,0.09,4.667,0.252v-4.414C295.58,23.3,294.035,23.229,292.344,23.229z"/>
			</g>
			<path fill="#282525" d="M63.158,55.112V24.248h4.727v30.955c0,8.9-0.092,16.406,16.221,16.406c16.219,0,15.85-7.506,15.85-16.869
				V24.248h4.634V54.74c0,12.422-0.836,21.227-20.483,21.227C64.363,75.967,63.158,67.162,63.158,55.112z"/>
			<path fill="#282525" d="M153.859,44.082v30.864h-4.726V43.991c0-8.898,0.091-16.404-16.221-16.404
				c-16.22,0-15.848,7.506-15.848,16.867v30.492h-4.635V44.454c0-12.42,0.835-21.225,20.482-21.225
				C152.656,23.229,153.859,32.034,153.859,44.082z"/>
			<path fill="#282525" d="M162.459,24.343h4.537v50.604h-4.537V24.343z"/>
			<path fill="#282525" d="M175.494,24.343h23.69c11.747,0,17.075,5.838,17.075,16.218c0,10.449-5.259,16.803-17.142,16.803h-19.087
				v17.583h-4.537V24.343z M199.252,52.812c8.187,0,12.253-3.988,12.253-12.047c0-8.057-4.389-11.882-12.456-11.882h-19.019v23.929
				H199.252z"/>
			<path fill="#282525" d="M221.54,49.459c0-14.92,4.265-26.415,23.357-26.415c19.742,0,20.389,13.254,20.299,27.248h-39.113
				c0.094,12.327,3.148,21.505,19.184,21.505c8.527,0,12.422-2.318,16.592-5.377l2.594,3.429c-4.633,3.43-10.101,6.118-19.186,6.118
				C225.249,75.967,221.54,64.38,221.54,49.459z M226.176,46.028h34.477c-0.464-10.103-1.112-18.721-15.85-18.721
				C230.624,27.308,226.732,35.001,226.176,46.028z"/>
			<g>
				<path d="M34.7,85.927c19.649,0,20.483-8.804,20.483-21.224V24.248h-4.635v40.455c0,9.358,0.371,16.869-15.848,16.869
					c-0.613,0-1.196-0.015-1.763-0.037v4.369C33.507,85.918,34.094,85.927,34.7,85.927z"/>
			</g>
		</g>
		<g>
			<path fill="#282525" d="M286.639,75.167c-1.765,0-3.203-1.436-3.203-3.199c0-1.765,1.438-3.2,3.203-3.2
				c1.763,0,3.196,1.436,3.196,3.2C289.835,73.731,288.402,75.167,286.639,75.167L286.639,75.167z M286.639,69.182
				c-1.537,0-2.788,1.249-2.788,2.786c0,1.533,1.251,2.785,2.788,2.785c1.532,0,2.782-1.252,2.782-2.785
				C289.421,70.431,288.171,69.182,286.639,69.182L286.639,69.182z"/>
			<g>
				<path fill="#282525" d="M286.844,72.393h-1.026v1.414h-0.49v-3.674h1.637c0.932,0,1.289,0.381,1.289,1.105
					c0,0.594-0.251,1.004-0.889,1.121l0.833,1.447h-0.532L286.844,72.393z M286.958,71.934c0.503,0,0.79-0.146,0.79-0.681
					c0-0.532-0.28-0.653-0.806-0.653h-1.125v1.334H286.958z"/>
			</g>
		</g>
	</g>
</g>
</svg>
