<?xml version="1.0" encoding="utf-8"?>
<!-- Generator: Adobe Illustrator 16.0.0, SVG Export Plug-In . SVG Version: 6.00 Build 0)  -->
<!DOCTYPE svg PUBLIC "-//W3C//DTD SVG 1.1//EN" "http://www.w3.org/Graphics/SVG/1.1/DTD/svg11.dtd">
<svg version="1.1" id="Layer_1" xmlns="http://www.w3.org/2000/svg" xmlns:xlink="http://www.w3.org/1999/xlink" x="0px" y="0px"
	 width="18.438px" height="16.143px" viewBox="0 0 18.438 16.143" enable-background="new 0 0 18.438 16.143" xml:space="preserve">
<path fill="#FFFFFF" d="M86.701,186.014c0,1.657-1.343,3-3,3H-5.634c-1.657,0-3-1.343-3-3v-81c0-1.657,1.343-3,3-3h89.335
	c1.657,0,3,1.343,3,3V186.014z"/>
<g>
	<path fill="#FFFFFF" d="M3.892,13.479c-0.729,0.001-1.229-0.62-1.076-1.33l1.072-4.974L1.737,4.514l-1.646,7.637
		c-0.23,1.068-0.021,2.07,0.589,2.824c0.609,0.754,1.546,1.168,2.638,1.167l7.813-0.009l-2.151-2.661L3.892,13.479z"/>
	<path fill="#FFFFFF" d="M14.547,2.665c0.363-0.001,0.675,0.137,0.878,0.389c0.204,0.251,0.273,0.585,0.197,0.941l-1.071,4.971
		l2.15,2.66l1.646-7.635c0.23-1.068,0.021-2.07-0.589-2.825C17.149,0.414,16.213-0.001,15.121,0L7.311,0.01L9.461,2.67L14.547,2.665
		z"/>
</g>
</svg>
