<?xml version="1.0" encoding="utf-8"?>
<!-- Generator: Adobe Illustrator 16.0.0, SVG Export Plug-In . SVG Version: 6.00 Build 0)  -->
<!DOCTYPE svg PUBLIC "-//W3C//DTD SVG 1.1//EN" "http://www.w3.org/Graphics/SVG/1.1/DTD/svg11.dtd">
<svg version="1.1" id="Layer_1" xmlns="http://www.w3.org/2000/svg" xmlns:xlink="http://www.w3.org/1999/xlink" x="0px" y="0px"
	 width="372.603px" height="374.973px" viewBox="0 0 372.603 374.973" enable-background="new 0 0 372.603 374.973"
	 xml:space="preserve">
<path fill="#D1D3D4" d="M170.642,148.493c0,10.467-8.484,18.952-18.951,18.952H22.149c-10.466,0-18.951-8.485-18.951-18.952V18.951
	C3.198,8.484,11.683,0,22.149,0h129.542c10.467,0,18.951,8.484,18.951,18.951V148.493z"/>
<path fill="#D1D3D4" d="M372.603,148.493c0,10.467-8.484,18.952-18.951,18.952H224.11c-10.467,0-18.951-8.485-18.951-18.952V18.951
	C205.159,8.484,213.643,0,224.11,0h129.542c10.467,0,18.951,8.484,18.951,18.951V148.493z"/>
<path fill="#D1D3D4" d="M170.642,352.573c0,10.466-8.484,18.951-18.951,18.951H22.149c-10.466,0-18.951-8.485-18.951-18.951V223.031
	c0-10.467,8.485-18.951,18.951-18.951h129.542c10.467,0,18.951,8.484,18.951,18.951V352.573z"/>
<path fill="#D1D3D4" d="M372.603,352.573c0,10.466-8.484,18.951-18.951,18.951H224.11c-10.467,0-18.951-8.485-18.951-18.951V223.031
	c0-10.467,8.484-18.951,18.951-18.951h129.542c10.467,0,18.951,8.484,18.951,18.951V352.573z"/>
</svg>
