<?xml version="1.0" encoding="utf-8"?>
<!-- Generator: Adobe Illustrator 16.0.0, SVG Export Plug-In . SVG Version: 6.00 Build 0)  -->
<!DOCTYPE svg PUBLIC "-//W3C//DTD SVG 1.1//EN" "http://www.w3.org/Graphics/SVG/1.1/DTD/svg11.dtd">
<svg version="1.1" id="Layer_1" xmlns="http://www.w3.org/2000/svg" xmlns:xlink="http://www.w3.org/1999/xlink" x="0px" y="0px"
	 width="372.603px" height="374.973px" viewBox="0 0 372.603 374.973" enable-background="new 0 0 372.603 374.973"
	 xml:space="preserve">
<g>
	<path fill="#D1D3D4" stroke="#FFFFFF" stroke-miterlimit="10" d="M177.212,172.212c0,2.761-2.239,5-5,5H5.5c-2.761,0-5-2.239-5-5
		V5.5c0-2.761,2.239-5,5-5h166.712c2.761,0,5,2.239,5,5V172.212z"/>
	<path fill="#D1D3D4" stroke="#FFFFFF" stroke-miterlimit="10" d="M177.212,369.473c0,2.762-2.239,5-5,5H5.5c-2.761,0-5-2.238-5-5
		V202.76c0-2.761,2.239-5,5-5h166.712c2.761,0,5,2.239,5,5V369.473z"/>
	<path fill="#D1D3D4" stroke="#FFFFFF" stroke-miterlimit="10" d="M372.103,172.212c0,2.761-2.239,5-5,5H200.391
		c-2.761,0-5-2.239-5-5V5.5c0-2.761,2.239-5,5-5h166.712c2.761,0,5,2.239,5,5V172.212z"/>
	<path fill="#D1D3D4" stroke="#FFFFFF" stroke-miterlimit="10" d="M372.103,369.473c0,2.762-2.239,5-5,5H200.391
		c-2.761,0-5-2.238-5-5V202.76c0-2.761,2.239-5,5-5h166.712c2.761,0,5,2.239,5,5V369.473z"/>
</g>
</svg>
